# xmcd
#
# Track frame offsets: 
#        150
#        16013
#        39031
#        56669
#        74852
#        88085
#        103510
#        123437
#        138545
#        158598
#        175489
#
# Disc length: 2544 seconds
#
# Revision: 0
# Processed by: cddbd v1.5.2PL0 Copyright (c) Steve Scherf et al.
# Submitted via: ExactAudioCopyFreeDBPlugin 1.0
#
DISCID=9009ee0b
DTITLE=Harald Thune - Love, Heartbreak And Drinkin' 
DYEAR=2008
DGENRE=Country
TTITLE0=Honkytonk Lullaby
TTITLE1=Firevictims
TTITLE2=Your Number Two
TTITLE3=It's Time
TTITLE4=Way With Me
TTITLE5=Struggle and Hope
TTITLE6=Maintaining
TTITLE7=Truckdriver
TTITLE8=Still Taller
TTITLE9=Nighttime Habits In The Middle Of The Day
TTITLE10=Heartbroken, Lonesome And Blue
EXTD=
EXTT0=
EXTT1=
EXTT2=
EXTT3=
EXTT4=
EXTT5=
EXTT6=
EXTT7=
EXTT8=
EXTT9=
EXTT10=
PLAYORDER=
